<?xml version="1.0" encoding="UTF-8"?>
<!DOCTYPE svg PUBLIC "-//W3C//DTD SVG 1.1//EN" "http://www.w3.org/Graphics/SVG/1.1/DTD/svg11.dtd">
<!-- Creator: CorelDRAW X8 -->
<svg xmlns="http://www.w3.org/2000/svg" xml:space="preserve" width="139.26mm" height="38.7282mm" version="1.1" style="shape-rendering:geometricPrecision; text-rendering:geometricPrecision; image-rendering:optimizeQuality; fill-rule:evenodd; clip-rule:evenodd"
viewBox="0 0 13926 3873"
 xmlns:xlink="http://www.w3.org/1999/xlink">
 <defs>
  <style type="text/css">
   <![CDATA[
    .fil0 {fill:#3C3739}
    .fil2 {fill:url(#id0)}
    .fil1 {fill:url(#id1)}
    .fil3 {fill:url(#id2)}
   ]]>
  </style>
  <radialGradient id="id0" gradientUnits="userSpaceOnUse" gradientTransform="matrix(1.64176 0.837396 -0.837396 1.64173 -4392 -9522)" cx="9695.7" cy="2185.56" r="394.37" fx="9695.7" fy="2185.56">
   <stop offset="0" style="stop-opacity:1; stop-color:#2FB2C9"/>
   <stop offset="1" style="stop-opacity:1; stop-color:#0D8297"/>
  </radialGradient>
  <radialGradient id="id1" gradientUnits="userSpaceOnUse" gradientTransform="matrix(1.64179 0.83741 -0.837416 1.64178 -1613 -5895)" xlink:href="#id0" cx="5364.3" cy="2185.56" r="394.36" fx="5364.3" fy="2185.56">
  </radialGradient>
  <radialGradient id="id2" gradientUnits="userSpaceOnUse" gradientTransform="matrix(1.64175 0.837396 -0.83739 1.64173 1104 -2351)" xlink:href="#id0" cx="1132.05" cy="2185.56" r="394.37" fx="1132.05" fy="2185.56">
  </radialGradient>
 </defs>
 <g id="Layer_x0020_1">
  <metadata id="CorelCorpID_0Corel-Layer"/>
  <g id="_2427516469392">
   <g>
    <path class="fil0" d="M10001 995c795,0 1439,645 1439,1439 0,795 -644,1439 -1439,1439 -795,0 -1439,-644 -1439,-1439 0,-794 644,-1439 1439,-1439zm0 497c520,0 942,422 942,942 0,520 -422,942 -942,942 -520,0 -942,-422 -942,-942 0,-520 422,-942 942,-942z"/>
    <path class="fil0" d="M1337 1492c285,-37 556,84 712,221 403,354 445,948 110,1331 -466,532 -1252,393 -1547,-148 -327,-600 37,-1315 725,-1404zm1038 1929l105 362 395 2 0 -2703 -395 0 -102 365c-135,-158 -380,-334 -662,-406 -436,-113 -807,-11 -1145,229l-207 190c-20,21 -38,49 -59,76 -570,719 -307,1831 514,2210 276,127 576,162 897,81 279,-71 532,-253 659,-406z"/>
    <path class="fil0" d="M12370 2374l-119 176c-38,57 -77,119 -119,176 -25,34 -36,55 -58,86 -186,250 -420,623 -605,882 -24,34 -42,56 -61,90l575 1c25,0 68,-73 92,-110l255 -370c22,-33 320,-476 344,-491 100,138 227,347 332,489l124 179c19,27 23,39 44,66 24,32 60,84 82,121 15,24 68,116 95,116l575 0 -478 -705c-44,-59 -76,-115 -120,-176 -43,-60 -79,-118 -119,-176l-240 -354c40,-72 255,-370 329,-484l220 -320c20,-27 34,-49 56,-80l276 -408 -575 0c-25,0 -32,23 -43,41 -15,24 -26,33 -39,54 -129,202 -339,500 -483,708 -20,29 -27,42 -49,54 -21,-48 -545,-805 -579,-855l-592 -2c13,33 34,53 54,84l110 160c197,270 410,616 606,881l110 167z"/>
    <path class="fil0" d="M6748 3460c-14,-32 -139,-141 -173,-167l-133 -120c-15,-15 -29,-24 -46,-38 -179,100 -245,167 -492,217 -218,45 -425,37 -620,-43 -777,-321 -766,-1401 -41,-1733 182,-83 389,-113 607,-66 281,60 415,226 473,250l334 -339c-46,-65 -222,-192 -304,-237 -121,-66 -239,-116 -390,-152 -1094,-257 -2065,841 -1670,1891 66,175 98,209 189,352 49,77 190,216 263,277 463,382 1148,413 1674,129 151,-82 287,-198 329,-221z"/>
    <polygon class="fil0" points="3365,3785 3820,3785 3855,3783 3855,4 3824,0 3365,1 "/>
    <path class="fil0" d="M7030 3783l490 0 0 -1351c0,-91 14,-175 32,-240 79,-290 293,-532 575,-641 176,-68 199,-43 339,-67l0 -399c-70,-8 -299,-3 -385,-3 -128,0 -339,175 -435,249 -49,36 -85,84 -124,113l-98 -362 -394 0 0 2701z"/>
    <path class="fil1" d="M5670 1706c401,0 726,325 726,727 0,401 -325,726 -726,726 -402,0 -727,-325 -727,-726 0,-402 325,-727 727,-727z"/>
    <path class="fil2" d="M10001 1706c401,0 727,325 727,727 0,401 -326,726 -727,726 -401,0 -727,-325 -727,-726 0,-402 326,-727 727,-727z"/>
   </g>
   <path class="fil3" d="M1437 1706c402,0 727,325 727,727 0,401 -325,726 -727,726 -401,0 -726,-325 -726,-726 0,-402 325,-727 726,-727z"/>
  </g>
 </g>
</svg>
