<svg width="512" height="512" viewBox="0 0 512 512" fill="none" xmlns="http://www.w3.org/2000/svg">
<rect width="512" height="512" fill="white"/>
<path d="M372.859 81V123.168H255.929C248.599 123.168 241.531 124.219 234.845 126.177V123.168C234.845 99.8873 253.732 81 277.013 81H372.859Z" fill="url(#paint0_linear_35_2)"/>
<path opacity="0.5" d="M372.859 81V123.168H255.929C248.599 123.168 241.531 124.219 234.845 126.177V123.168C234.845 99.8873 253.732 81 277.013 81H372.859Z" fill="url(#paint1_linear_35_2)"/>
<path d="M139 81V123.168H255.93C263.26 123.168 270.328 124.219 277.014 126.177V123.168C277.014 99.8873 258.127 81 234.846 81H139Z" fill="url(#paint2_linear_35_2)"/>
<path opacity="0.5" d="M139 81V123.168H255.93C263.26 123.168 270.328 124.219 277.014 126.177V123.168C277.014 99.8873 258.127 81 234.846 81H139Z" fill="url(#paint3_linear_35_2)"/>
<path d="M255.93 272.715C214.645 272.715 181.169 239.238 181.169 197.953C181.169 156.669 214.645 123.192 255.93 123.192H275.772V81.0239H255.93C191.341 81.0239 139 133.364 139 197.953C139 262.543 191.364 314.883 255.93 314.883C303.733 314.883 344.779 286.206 362.926 245.112H313.929C300.223 261.946 279.33 272.715 255.93 272.715Z" fill="url(#paint4_linear_35_2)"/>
<path opacity="0.5" d="M194.899 148.073C195.711 149.219 196.547 150.341 197.382 151.487C211.088 134.247 232.196 123.192 255.931 123.192H275.773V81.0239H255.931C223.051 81.0239 193.371 94.6104 172.12 116.459C179.904 126.845 187.354 137.495 194.899 148.073Z" fill="url(#paint5_linear_35_2)"/>
<path d="M319.181 81H277.013C253.732 81 234.845 99.8873 234.845 123.168V253.207C241.531 255.188 248.622 256.239 255.929 256.239C263.26 256.239 270.327 255.188 277.013 253.231V123.168C277.013 99.8873 295.9 81 319.181 81Z" fill="url(#paint6_linear_35_2)"/>
<path d="M41.0002 365.216H53.6323V404.48H65.2456V365.216H77.8776V355.695H41.0002V365.216Z" fill="black"/>
<path d="M110.94 371.54C110.94 375.362 108.902 377.655 104.556 377.655H97.3568V365.563H104.556C108.902 365.563 110.94 367.926 110.94 371.54ZM85.7435 355.695V404.48H97.3568V386.064H100.141L110.057 404.48H123.164L112.162 385.161C119.497 382.937 122.757 377.169 122.757 371.053C122.757 362.575 116.916 355.695 105.235 355.695H85.7435Z" fill="black"/>
<path d="M164.615 404.48H176.908L159.657 355.695H146.21L128.96 404.48H141.117L143.969 395.863H161.763L164.615 404.48ZM158.774 386.689H147.025L152.866 368.829L158.774 386.689Z" fill="black"/>
<path d="M215.232 355.695V385.925L195.808 355.695H184.195V404.48H195.808V374.389L215.232 404.48H226.845V355.695H215.232Z" fill="black"/>
<path d="M271.937 389.956C271.937 373.624 248.371 377.447 248.371 368.968C248.371 365.911 250.476 364.451 253.261 364.521C256.385 364.59 258.558 366.467 258.762 369.594H271.326C270.85 360.282 263.855 355 253.464 355C243.481 355 236.078 360.143 236.078 369.385C235.942 386.689 259.78 381.825 259.78 390.859C259.78 393.708 257.607 395.446 254.211 395.446C250.951 395.446 248.642 393.639 248.303 389.886H235.942C236.282 399.754 244.296 404.966 254.551 404.966C265.689 404.966 271.937 398.156 271.937 389.956Z" fill="black"/>
<path d="M279.152 380.018C279.152 394.612 289.067 404.827 303.125 404.827C314.467 404.827 323.024 398.364 325.741 387.801H312.973C311.003 391.971 307.404 394.056 302.99 394.056C295.859 394.056 290.969 388.635 290.969 380.018C290.969 371.401 295.859 365.98 302.99 365.98C307.404 365.98 311.003 368.065 312.973 372.235H325.741C323.024 361.671 314.467 355.139 303.125 355.139C289.067 355.139 279.152 365.424 279.152 380.018Z" fill="black"/>
<path d="M381.819 379.948C381.819 365.285 371.021 355 357.438 355C343.923 355 332.921 365.285 332.921 379.948C332.921 394.612 343.923 404.966 357.438 404.966C370.953 404.966 381.819 394.612 381.819 379.948ZM344.806 379.948C344.806 371.262 349.695 365.772 357.438 365.772C365.044 365.772 370.002 371.262 370.002 379.948C370.002 388.496 365.044 394.125 357.438 394.125C349.695 394.125 344.806 388.496 344.806 379.948Z" fill="black"/>
<path d="M408.179 355.695H390.317V404.48H408.179C423.391 404.48 433.171 394.542 433.171 380.087C433.171 365.563 423.391 355.695 408.179 355.695ZM401.93 394.195V365.841H407.431C416.192 365.841 421.354 371.123 421.354 380.087C421.354 389.052 416.192 394.195 407.431 394.195H401.93Z" fill="black"/>
<path d="M470.902 355.695H441.698V404.48H470.902V394.959H453.312V384.257H468.864V375.084H453.312V365.216H470.902V355.695Z" fill="black"/>
<path d="M126.667 430.951C126.625 430.497 126.442 430.144 126.116 429.892C125.794 429.636 125.334 429.508 124.735 429.508C124.339 429.508 124.009 429.56 123.745 429.663C123.481 429.766 123.283 429.909 123.151 430.09C123.019 430.268 122.951 430.472 122.947 430.703C122.938 430.893 122.976 431.06 123.058 431.204C123.145 431.349 123.268 431.477 123.429 431.588C123.594 431.696 123.793 431.79 124.024 431.873C124.255 431.955 124.515 432.028 124.804 432.09L125.893 432.337C126.52 432.473 127.073 432.655 127.552 432.882C128.035 433.109 128.439 433.379 128.765 433.693C129.095 434.006 129.345 434.367 129.514 434.776C129.683 435.184 129.77 435.642 129.774 436.15C129.77 436.951 129.568 437.638 129.167 438.211C128.767 438.785 128.191 439.224 127.44 439.53C126.693 439.835 125.792 439.988 124.735 439.988C123.675 439.988 122.751 439.829 121.962 439.511C121.174 439.193 120.562 438.71 120.124 438.063C119.687 437.415 119.462 436.596 119.449 435.605H122.383C122.408 436.014 122.517 436.354 122.711 436.627C122.905 436.899 123.172 437.105 123.51 437.246C123.852 437.386 124.249 437.456 124.698 437.456C125.111 437.456 125.462 437.4 125.751 437.289C126.044 437.178 126.268 437.023 126.425 436.825C126.582 436.627 126.663 436.4 126.667 436.144C126.663 435.904 126.588 435.7 126.444 435.531C126.299 435.358 126.077 435.209 125.775 435.085C125.478 434.957 125.099 434.84 124.636 434.733L123.312 434.423C122.214 434.171 121.35 433.765 120.718 433.204C120.087 432.638 119.773 431.875 119.778 430.914C119.773 430.13 119.984 429.442 120.409 428.852C120.834 428.262 121.422 427.802 122.173 427.472C122.924 427.142 123.78 426.977 124.742 426.977C125.724 426.977 126.576 427.144 127.298 427.478C128.024 427.808 128.587 428.273 128.988 428.871C129.388 429.469 129.592 430.163 129.601 430.951H126.667Z" fill="black"/>
<path d="M169.431 433.488C169.431 434.883 169.163 436.065 168.626 437.035C168.09 438.005 167.364 438.741 166.448 439.245C165.536 439.748 164.512 440 163.378 440C162.239 440 161.213 439.746 160.301 439.239C159.389 438.731 158.665 437.995 158.129 437.029C157.596 436.059 157.33 434.879 157.33 433.488C157.33 432.094 157.596 430.911 158.129 429.942C158.665 428.972 159.389 428.235 160.301 427.732C161.213 427.229 162.239 426.977 163.378 426.977C164.512 426.977 165.536 427.229 166.448 427.732C167.364 428.235 168.09 428.972 168.626 429.942C169.163 430.911 169.431 432.094 169.431 433.488ZM166.299 433.488C166.299 432.663 166.182 431.966 165.946 431.396C165.715 430.827 165.381 430.396 164.944 430.103C164.51 429.81 163.988 429.663 163.378 429.663C162.771 429.663 162.249 429.81 161.812 430.103C161.374 430.396 161.038 430.827 160.803 431.396C160.572 431.966 160.456 432.663 160.456 433.488C160.456 434.314 160.572 435.011 160.803 435.581C161.038 436.15 161.374 436.581 161.812 436.874C162.249 437.167 162.771 437.314 163.378 437.314C163.988 437.314 164.51 437.167 164.944 436.874C165.381 436.581 165.715 436.15 165.946 435.581C166.182 435.011 166.299 434.314 166.299 433.488Z" fill="black"/>
<path d="M197.365 439.827V427.15H200.429V437.338H205.703V439.827H197.365Z" fill="black"/>
<path d="M241.103 427.15H244.161V435.327C244.161 436.272 243.936 437.095 243.486 437.796C243.036 438.494 242.409 439.034 241.604 439.418C240.8 439.798 239.865 439.988 238.8 439.988C237.723 439.988 236.783 439.798 235.978 439.418C235.173 439.034 234.548 438.494 234.102 437.796C233.657 437.095 233.434 436.272 233.434 435.327V427.15H236.498V435.061C236.498 435.498 236.593 435.888 236.783 436.23C236.977 436.573 237.247 436.841 237.593 437.035C237.94 437.229 238.342 437.326 238.8 437.326C239.258 437.326 239.659 437.229 240.001 437.035C240.348 436.841 240.618 436.573 240.812 436.23C241.006 435.888 241.103 435.498 241.103 435.061V427.15Z" fill="black"/>
<path d="M271.812 429.638V427.15H282.526V429.638H278.682V439.827H275.661V429.638H271.812Z" fill="black"/>
<path d="M313.231 427.15V439.827H310.167V427.15H313.231Z" fill="black"/>
<path d="M353.265 433.488C353.265 434.883 352.996 436.065 352.46 437.035C351.923 438.005 351.197 438.741 350.281 439.245C349.369 439.748 348.346 440 347.211 440C346.072 440 345.047 439.746 344.135 439.239C343.223 438.731 342.499 437.995 341.962 437.029C341.43 436.059 341.164 434.879 341.164 433.488C341.164 432.094 341.43 430.911 341.962 429.942C342.499 428.972 343.223 428.235 344.135 427.732C345.047 427.229 346.072 426.977 347.211 426.977C348.346 426.977 349.369 427.229 350.281 427.732C351.197 428.235 351.923 428.972 352.46 429.942C352.996 430.911 353.265 432.094 353.265 433.488ZM350.133 433.488C350.133 432.663 350.015 431.966 349.78 431.396C349.549 430.827 349.214 430.396 348.777 430.103C348.344 429.81 347.822 429.663 347.211 429.663C346.604 429.663 346.083 429.81 345.645 430.103C345.208 430.396 344.871 430.827 344.636 431.396C344.405 431.966 344.29 432.663 344.29 433.488C344.29 434.314 344.405 435.011 344.636 435.581C344.871 436.15 345.208 436.581 345.645 436.874C346.083 437.167 346.604 437.314 347.211 437.314C347.822 437.314 348.344 437.167 348.777 436.874C349.214 436.581 349.549 436.15 349.78 435.581C350.015 435.011 350.133 434.314 350.133 433.488Z" fill="black"/>
<path d="M391.987 427.15V439.827H389.388L384.343 432.51H384.263V439.827H381.199V427.15H383.835L388.824 434.454H388.93V427.15H391.987Z" fill="black"/>
<defs>
<linearGradient id="paint0_linear_35_2" x1="335.572" y1="150.306" x2="295.505" y2="91.3045" gradientUnits="userSpaceOnUse">
<stop stop-color="#00C6DB"/>
<stop offset="1" stop-color="#72227F"/>
</linearGradient>
<linearGradient id="paint1_linear_35_2" x1="329.199" y1="141.368" x2="300.478" y2="98.5686" gradientUnits="userSpaceOnUse">
<stop offset="0.2081" stop-color="#72227F" stop-opacity="0"/>
<stop offset="1" stop-color="#72227F"/>
</linearGradient>
<linearGradient id="paint2_linear_35_2" x1="143.623" y1="71.6984" x2="202.862" y2="108.229" gradientUnits="userSpaceOnUse">
<stop stop-color="#00C6DB"/>
<stop offset="1" stop-color="#72227F"/>
</linearGradient>
<linearGradient id="paint3_linear_35_2" x1="173.512" y1="83.99" x2="200.544" y2="107.079" gradientUnits="userSpaceOnUse">
<stop offset="0.2081" stop-color="#72227F" stop-opacity="0"/>
<stop offset="1" stop-color="#72227F"/>
</linearGradient>
<linearGradient id="paint4_linear_35_2" x1="166.102" y1="122.41" x2="331.45" y2="287.758" gradientUnits="userSpaceOnUse">
<stop stop-color="#FFDC81"/>
<stop offset="1" stop-color="#FF4EA6"/>
</linearGradient>
<linearGradient id="paint5_linear_35_2" x1="176.693" y1="122.412" x2="239.765" y2="113.964" gradientUnits="userSpaceOnUse">
<stop offset="0.2081" stop-color="#72227F" stop-opacity="0"/>
<stop offset="1" stop-color="#72227F"/>
</linearGradient>
<linearGradient id="paint6_linear_35_2" x1="260.029" y1="91.7257" x2="295.747" y2="250.269" gradientUnits="userSpaceOnUse">
<stop stop-color="#00C6DB"/>
<stop offset="1" stop-color="#72227F"/>
</linearGradient>
</defs>
</svg>
